<svg xmlns="http://www.w3.org/2000/svg" version="1.1" xmlns:xlink="http://www.w3.org/1999/xlink" xmlns:svgjs="http://svgjs.com/svgjs" width="100%" height="100%" viewBox="0 0 1000 600"><rect width="1000" height="600" x="0" y="0" fill="#46454a"/><g><circle r="166.66666666666666" cx="368.5814768473307" cy="371.0021712194549" fill="#e9ecef" transform="matrix(0.6863860053007255,0,0,0.6863860053007254,-4.262483501142084,45.34931188864405)"/><path d="M190.69473126791632 429.7924480821748L190.69473126791632 429.7924480821748L191.14500145338758 391.5495003294835L191.14500145338758 348.3235625242438Q191.14500145338758 318.48565823368256 188.32330829110109 298.61373404821813L188.32330829110109 298.61373404821813Q204.32290888151275 296.00216697248493 220.53263555847764 296.00216697248493L220.53263555847764 296.00216697248493Q278.46739942244477 296.00216697248493 278.46739942244477 339.0179786911714L278.46739942244477 339.0179786911714Q278.46739942244477 356.75862399873847 268.7415634162658 367.65516248714266Q259.0157274100869 378.5817189879116 243.01612681967524 381.6135382367513L243.01612681967524 381.6135382367513Q243.01612681967524 381.82366432330457 246.6783243281747 389.59832952577483Q250.37053984903895 397.372994728245 251.75136841781745 399.9845618039783Q253.16221499896068 402.56611086734677 256.1940342478004 408.3896052661082L256.1940342478004 408.3896052661082Q261.80740256000865 419.1960897174181 265.91987025397935 423.30855741138885L265.91987025397935 423.30855741138885Q271.53323856618755 429.58232199562156 279.758173954129 429.58232199562156L279.758173954129 429.58232199562156Q282.3397230174975 429.58232199562156 285.58166835289046 428.92192572359704L285.58166835289046 428.92192572359704Q287.5328391565992 432.82426733101454 287.5328391565992 435.405816394383L287.5328391565992 435.405816394383Q287.5328391565992 443.6307517823245 271.32311247963435 443.6307517823245L271.32311247963435 443.6307517823245Q262.4677988320331 443.6307517823245 254.90325971611617 434.9855642212765L254.90325971611617 434.9855642212765Q250.79079202214544 430.24271826764607 247.8790448227647 426.55050274678183Q244.96729762338398 422.8883052382823 240.73475787995426 415.1136400358122Q236.5322361488893 407.3089568209772 234.7911914317338 403.97695744849Q233.08016472694305 400.61494006363796 228.96769703297232 391.63955436657784Q224.8552293390016 382.69418668188234 224.1948330669771 381.3733941378333L224.1948330669771 381.3733941378333Q218.1612125816624 380.5328897916204 218.1612125816624 376.6305481842029L218.1612125816624 376.6305481842029Q218.1612125816624 374.6793773804942 219.2418610267934 370.80705378544144L219.2418610267934 370.80705378544144Q225.27548151210812 371.8877022305725 229.38794920607882 371.8877022305725L229.38794920607882 371.8877022305725Q243.88664917825298 371.8877022305725 252.08156655382967 363.33256870661876Q260.3065019417711 354.8074531950298 260.3065019417711 338.8078526046181Q260.3065019417711 322.80825201420646 251.21104419525193 315.9941632074083Q242.1456044610975 309.2100924129748 223.3543287207641 309.2100924129748L223.3543287207641 309.2100924129748Q216.4201678645069 309.2100924129748 206.48420577177473 310.0505967591878L206.48420577177473 310.0505967591878Q207.35472813035247 322.5981259276532 207.35472813035247 354.14705692300527L207.35472813035247 354.14705692300527L207.35472813035247 397.58312081479824Q207.35472813035247 426.7606288333351 211.4671958243232 440.38880644693154L211.4671958243232 440.38880644693154Q207.5648542169057 442.129851164087 201.291089632673 442.129851164087Q195.01732504844028 442.129851164087 192.8560281581783 439.3081580018005Q190.69473126791632 436.48646483951404 190.69473126791632 429.7924480821748ZM302.87204347498636 430.0025741687281L302.87204347498636 430.0025741687281Q305.90386272382614 410.3407760698169 306.11398881037934 364.95354137431525Q306.3241148969326 319.5663066788135 303.53243974701087 298.61373404821813L303.53243974701087 298.61373404821813Q316.50022108858275 296.00216697248493 335.20144279182193 296.00216697248493Q353.87264648269627 296.00216697248493 367.29069800973946 299.69438249334917Q380.6787315244179 303.3565800018486 391.8154141117401 311.461443340331Q402.9520966990623 319.5663066788135 409.10578923383594 334.27513273754096Q415.2594817686096 348.9539407839036 415.2594817686096 369.4862612413924L415.2594817686096 369.4862612413924Q415.2594817686096 401.90571459532225 397.96910664651375 422.7682331888234Q380.6787315244179 443.6307517823245 350.00032288764356 443.6307517823245Q319.2918962385045 443.6307517823245 302.87204347498636 430.0025741687281ZM321.69333722768454 310.0505967591878L321.69333722768454 310.0505967591878Q322.53384157389746 324.96954890446847 322.53384157389746 359.1300469755538Q322.53384157389746 393.26052703427433 319.5320403374225 422.67817915172907L319.5320403374225 422.67817915172907Q331.17902913494544 430.4528443541993 346.5482514656973 430.4528443541993Q361.8874557840845 430.4528443541993 371.8234178768167 425.25972821509754Q381.75937996954883 420.06661207599586 387.1626221952038 411.2112984283947L387.1626221952038 411.2112984283947Q397.098584287936 394.7914456648765 397.098584287936 373.80885502191643L397.098584287936 373.80885502191643Q397.098584287936 341.6295457669046 381.12900170988917 325.4198190899397Q365.1294011194775 309.2100924129748 335.5016229154694 309.2100924129748L335.5016229154694 309.2100924129748Q330.758776961839 309.2100924129748 321.69333722768454 310.0505967591878ZM509.72616668047726 383.5346910280954L509.72616668047726 383.5346910280954Q502.37175365111364 364.3231631146555 487.452801505833 318.48565823368256L487.452801505833 318.48565823368256Q485.5016307021242 323.468648286231 477.5168394131008 346.16226563398186Q469.50203011171266 368.85588298173263 463.46840962639783 383.5346910280954L463.46840962639783 383.5346910280954Q480.3085145630224 383.98496121356663 491.7753952863569 383.98496121356663Q503.2422760096914 383.98496121356663 509.72616668047726 383.5346910280954ZM514.2588865475545 396.29234628311406L514.2588865475545 396.29234628311406Q490.0343505692015 396.7426164685853 484.87125244246454 396.7426164685853Q479.67813630336275 396.7426164685853 458.0651674007429 396.29234628311406L458.0651674007429 396.29234628311406Q443.5664674285688 432.82426733101454 439.9042699200693 446.00217475913973L439.9042699200693 446.00217475913973Q432.7599829772588 444.5012741409022 429.848235777878 442.5501033371935Q426.93648857849735 440.5989325334847 426.93648857849735 437.687185334104Q426.93648857849735 434.77543813472334 436.2420724115698 413.1624692321034L436.2420724115698 413.1624692321034Q467.3407332214506 339.88850104974915 479.2278661178915 298.8238601347714L479.2278661178915 298.8238601347714Q483.34033381186225 298.1634638627469 488.5334499509639 298.1634638627469Q493.7265660900656 298.1634638627469 495.88786298032767 300.02458062936137Q498.0491598705896 301.8556793836111 500.42058284740483 309.63034458608126L500.42058284740483 309.63034458608126Q514.0487604610013 353.5166786633455 527.7669921116919 389.2681313897625Q541.4852237623827 425.0496021285443 548.8396367917463 439.3081580018005L548.8396367917463 439.3081580018005Q542.7759982940669 443.6307517823245 538.4534045135429 443.6307517823245L538.4534045135429 443.6307517823245Q531.5492616696505 443.6307517823245 529.1778386928352 437.80725738356296L529.1778386928352 437.80725738356296Q525.0653709988645 427.21089901880634 514.2588865475545 396.29234628311406Z " fill="#46454a" transform="matrix(0.6863860053007255,0,0,0.6863860053007254,-4.262483501142084,45.34931188864405)"/><path d="M638.083646825932 401.63291354243665L638.083646825932 401.63291354243665L637.9144829778311 350.3037687758117Q637.9144829778311 325.7750108011769 636.6820035130957 309.9219416077184L636.6820035130957 309.9219416077184Q639.6544539868692 309.41445006341553 643.8110513973493 309.41445006341553L643.8110513973493 309.41445006341553Q652.341742594439 309.41445006341553 652.341742594439 316.0118401393519L652.341742594439 316.0118401393519Q652.341742594439 316.8818256438709 652.003414898237 322.4642326312016L652.003414898237 322.4642326312016Q650.9642655456171 339.1631210651648 650.9642655456171 352.0437397848499L650.9642655456171 352.0437397848499L650.9642655456171 405.98284106503206Q650.9642655456171 415.5526816147418 648.8618005763626 423.02005719519707Q646.7835018711227 430.51159903966686 643.7385526053059 434.6923627141613Q640.6936033394892 438.8731263886557 637.044497473312 441.6522467503138L637.044497473312 441.6522467503138Q630.7612688295632 446.0021742729091 625.7346859145641 446.0021742729091L625.7346859145641 446.0021742729091Q619.2822934227144 446.0021742729091 618.5814717662963 436.06983976298307L618.5814717662963 436.06983976298307Q628.6829701243232 433.9915410577431 633.7337193033367 428.7716280306287L633.7337193033367 428.7716280306287Q637.3828251695138 424.95335831635055 637.9144829778311 413.28105279738645L637.9144829778311 413.28105279738645Q638.083646825932 409.4627830831083 638.083646825932 401.63291354243665ZM690.5486060012347 423.8900426997161Q687.503656735418 427.0316570215906 683.1537292128226 427.0316570215906Q678.8038016902273 427.0316570215906 675.6621873683528 423.8900426997161Q672.5205730464784 420.77259464185613 672.5205730464784 416.06017315904455Q672.5205730464784 411.3719179402474 675.6621873683528 408.15780482632965Q678.8038016902273 404.94369171241203 683.1537292128226 404.94369171241203Q687.503656735418 404.94369171241203 690.5486060012347 408.15780482632965Q693.5935552670514 411.3719179402474 693.5935552670514 416.06017315904455Q693.5935552670514 420.77259464185613 690.5486060012347 423.8900426997161ZM716.382342232648 415.8910093109437L716.382342232648 415.8910093109437L716.7206699288499 385.1031889565744L716.7206699288499 350.3037687758117Q716.7206699288499 325.7750108011769 715.512356728129 309.9219416077184L715.512356728129 309.9219416077184Q718.4606409378881 309.41445006341553 722.6414046123824 309.41445006341553L722.6414046123824 309.41445006341553Q731.1720958094722 309.41445006341553 731.1720958094722 316.0118401393519L731.1720958094722 316.0118401393519Q731.1720958094722 317.0751557559862 730.809601849256 322.9717241755044L730.809601849256 322.9717241755044Q729.7704524966359 341.07225592230384 729.7704524966359 354.99202399460887L729.7704524966359 354.99202399460887L729.7704524966359 389.96060802347256Q729.7704524966359 413.45021664548733 733.0812306666113 424.4217005080334L733.0812306666113 424.4217005080334Q729.9396163447369 425.8233438208696 724.9130334297378 425.8233438208696Q719.8622842507243 425.8233438208696 718.1223132416862 423.55171500351435Q716.382342232648 421.280086186159 716.382342232648 415.8910093109437ZM766.6723376466531 351.8745759367489L766.6723376466531 351.8745759367489Q779.3596262542227 342.64306308324103 793.2793943265278 342.64306308324103Q807.199162398833 342.64306308324103 815.633188539865 352.4787325371094Q824.0913809449115 362.3144019909778 824.0913809449115 381.62324693849814Q824.0913809449115 400.9320918860185 814.6907042433027 413.9818744538046Q805.2900275416938 427.0316570215906 786.8511680986925 427.0316570215906Q768.4123086556912 427.0316570215906 754.4925405833861 415.1901876545255L754.4925405833861 415.1901876545255Q755.700853784107 404.7503616002966 755.700853784107 383.5323817956372Q755.700853784107 362.3144019909778 754.8308682795879 332.7348948373294Q753.9608827750689 303.15538768368117 752.9217334224489 296.5338313437305L752.9217334224489 296.5338313437305Q755.0000321276889 296.00217353541325 759.1807958021833 296.00217353541325L759.1807958021833 296.00217353541325Q767.0106653428548 296.00217353541325 767.0106653428548 302.623729875364L767.0106653428548 302.623729875364Q767.0106653428548 304.8953586927193 766.841501494754 325.58168068906156Q766.6723376466531 346.2921689494183 766.6723376466531 351.8745759367489ZM766.841501494754 361.61358033455963L766.841501494754 361.61358033455963L767.0106653428548 387.35065150991534Q767.0106653428548 401.27041958222037 766.4790075345377 408.230303618373L766.4790075345377 408.230303618373Q776.7496697406656 417.2926526237799 788.6636378997739 417.2926526237799Q800.6017723228966 417.2926526237799 806.2566781022706 407.2878193218106Q811.9115838816446 397.28298601984136 811.9115838816446 382.5657312350604Q811.9115838816446 367.872642714294 805.6283552378957 360.1394382296801Q799.3692928581613 352.38206748105176 789.9686161565525 352.38206748105176L789.9686161565525 352.38206748105176Q777.4504913970837 352.38206748105176 766.841501494754 361.61358033455963ZM899.0792981816522 371.0142570361684L899.0792981816522 371.0142570361684L898.7168042214358 394.50386565818326Q898.7168042214358 414.51353226212177 902.0275823914112 424.4217005080334L902.0275823914112 424.4217005080334Q899.2484620297531 425.8233438208696 895.3335272594173 425.8233438208696Q891.4185924890816 425.8233438208696 889.8477853281444 423.98670775577386Q888.2769781672071 422.15007169067803 887.7694866229043 418.162638128299L887.7694866229043 418.162638128299Q876.9671666084593 427.0316570215906 865.4881912016104 427.0316570215906L865.4881912016104 427.0316570215906Q838.6878044096203 427.0316570215906 838.6878044096203 402.5028990469558L838.6878044096203 402.5028990469558Q838.6878044096203 393.6338801536641 842.8685680841146 389.4531164791697Q847.0493317586091 385.2723528046754 854.3475434909634 383.19405409943533L854.3475434909634 383.19405409943533Q867.3973260587495 379.7141120813591 887.4069926626881 378.48163261662376L887.4069926626881 378.48163261662376Q887.4069926626881 363.6918790397996 883.7578867965109 358.0369732604256Q880.1087809303336 352.38206748105176 868.2673115632685 352.38206748105176L868.2673115632685 352.38206748105176Q863.4098924963704 352.38206748105176 858.189979469256 355.52368180292615Q852.9700664421416 358.6411298607861 850.3601099285844 364.5618645443186L850.3601099285844 364.5618645443186Q842.361076539812 362.9910573833814 842.361076539812 357.6019805081661L842.361076539812 357.6019805081661Q842.361076539812 350.81126032011446 850.6984376247863 346.7271617016778Q859.0599649737751 342.64306308324103 872.1097475415611 342.64306308324103Q885.1595301093471 342.64306308324103 892.1194141454997 348.82962667093216Q899.0792981816522 354.99202399460887 899.0792981816522 371.0142570361684ZM887.2378288145871 387.35065150991534L887.2378288145871 387.35065150991534Q882.1870796355737 387.8823093182325 879.673788178074 388.2206370144344Q877.1604967205745 388.58313097465066 872.8830679900225 389.0906225189534Q868.6298055234848 389.6222803272707 866.5273405542304 390.15393813558785Q864.4490418489904 390.6614296798907 861.4040925831737 391.53141518440975Q858.3591433173569 392.4014006889288 856.8850012124775 393.4405500415488Q855.410859107598 394.50386565818326 853.8400519466607 395.71217885890417L853.8400519466607 395.71217885890417Q850.8676014728873 398.1529715243604 850.8676014728873 402.5028990469558L850.8676014728873 402.5028990469558Q850.8676014728873 410.33276858762736 855.410859107598 414.07853950986225Q859.9299504782941 417.80014416808274 866.8898345144468 417.80014416808274L866.8898345144468 417.80014416808274Q878.7071376174973 417.80014416808274 886.8995011183853 409.9702746274111L886.8995011183853 409.9702746274111Q886.7303372702844 407.55364822596925 886.7303372702844 401.1012557341195Q886.7303372702844 394.67302950628414 887.2378288145871 387.35065150991534ZM922.9072344998689 415.8910093109437L922.9072344998689 415.8910093109437L923.2697284600852 385.1031889565744Q923.2697284600852 360.2119370217233 922.0372489953498 344.3830340922792L922.0372489953498 344.3830340922792Q924.8163693570079 343.85137628396194 927.9579836788823 343.85137628396194L927.9579836788823 343.85137628396194Q935.449525523352 343.85137628396194 935.449525523352 350.4729326239127L935.449525523352 350.4729326239127Q935.449525523352 350.81126032011446 935.3528604672944 352.8170602333113Q935.2561954112367 354.822860146508 935.2561954112367 356.5628311555462L935.2561954112367 356.5628311555462Q938.7361374293131 351.17375428033074 944.5843733208022 346.8963255497787Q950.4084429482772 342.64306308324103 955.2658620151753 342.64306308324103L955.2658620151753 342.64306308324103Q964.6665387167842 342.64306308324103 964.6665387167842 349.43378327129267L964.6665387167842 349.43378327129267Q964.6665387167842 352.74456144126805 961.1865966987078 357.2636528119642L961.1865966987078 357.2636528119642Q957.3683269844297 353.95287464198896 952.6559055016181 353.95287464198896Q947.967650282821 353.95287464198896 943.0860649519083 357.7711443562671Q938.2286458850102 361.61358033455963 934.917867715035 367.872642714294L934.917867715035 367.872642714294Q934.748703866934 373.7933773978266 934.748703866934 393.6338801536641Q934.748703866934 413.45021664548733 938.0594820369093 424.4217005080334L938.0594820369093 424.4217005080334Q934.917867715035 425.8233438208696 930.6646052484972 425.8233438208696Q926.3871765179451 425.8233438208696 924.647205508907 423.55171500351435Q922.9072344998689 421.280086186159 922.9072344998689 415.8910093109437ZM989.2919617474766 423.8900426997161Q986.2470124816599 427.0316570215906 981.8970849590645 427.0316570215906Q977.5471574364692 427.0316570215906 974.4055431145947 423.8900426997161Q971.2880950567348 420.77259464185613 971.2880950567348 416.06017315904455Q971.2880950567348 411.3719179402474 974.4055431145947 408.15780482632965Q977.5471574364692 404.94369171241203 981.8970849590645 404.94369171241203Q986.2470124816599 404.94369171241203 989.2919617474766 408.15780482632965Q992.3369110132933 411.3719179402474 992.3369110132933 416.06017315904455Q992.3369110132933 420.77259464185613 989.2919617474766 423.8900426997161ZM1118.1464814723563 367.5343150180921Q1118.1464814723563 394.67302950628414 1103.5983905356761 410.8402601319301Q1089.0744658630106 427.0316570215906 1064.6423729444336 427.0316570215906Q1040.186113761842 427.0316570215906 1025.7346878812198 410.8402601319301Q1011.307428264612 394.67302950628414 1011.307428264612 367.5343150180921Q1011.307428264612 340.3714342658857 1025.7346878812198 324.27670243228295Q1040.186113761842 308.1819705986802 1064.6423729444336 308.1819705986802Q1089.0744658630106 308.1819705986802 1103.5983905356761 324.27670243228295Q1118.1464814723563 340.3714342658857 1118.1464814723563 367.5343150180921ZM1094.8260366984423 335.6831790470885L1094.8260366984423 335.6831790470885Q1090.476109175847 328.02247335451784 1082.6462396351753 323.4067169277639Q1074.8163700945038 318.8151267650244 1064.7148717364767 318.8151267650244L1064.7148717364767 318.8151267650244Q1046.8076701017926 318.8151267650244 1036.1745139354484 331.0674226203346Q1025.565524033119 343.3438847396592 1025.565524033119 362.3144019909778L1025.565524033119 362.3144019909778Q1025.565524033119 383.00072398732004 1034.2653790783095 399.02295702887943L1034.2653790783095 399.02295702887943Q1038.6153066009047 407.021990417652 1046.3726773495332 411.71024563644926Q1054.105881834147 416.42266711926084 1064.376544040275 416.42266711926084L1064.376544040275 416.42266711926084Q1083.1537311794782 416.42266711926084 1093.351894593563 403.80787730373436Q1103.525891743633 391.1930874882079 1103.525891743633 371.0867558282116Q1103.525891743633 351.00459043222986 1094.8260366984423 335.6831790470885ZM1191.2252638519578 416.9301586635636L1191.2252638519578 416.9301586635636L1192.264413204578 371.8842425406875Q1192.264413204578 362.1210718788624 1187.479492929723 357.2636528119642Q1182.6945726548681 352.38206748105176 1175.2030308103986 352.38206748105176L1175.2030308103986 352.38206748105176Q1163.3857277073478 352.38206748105176 1151.8825860364846 361.9519080307615L1151.8825860364846 361.9519080307615Q1152.245079996701 385.61068050087715 1152.245079996701 399.45794978113906Q1152.245079996701 413.28105279738645 1153.2842293493209 425.12252216445154L1153.2842293493209 425.12252216445154Q1150.5051089876627 425.6300137087543 1147.363494665788 425.6300137087543L1147.363494665788 425.6300137087543Q1139.5336251251167 425.6300137087543 1139.5336251251167 419.03262363281806L1139.5336251251167 419.03262363281806Q1139.5336251251167 418.3318019763999 1139.9686178773761 406.2486699691906Q1140.4036106296358 394.141371697967 1140.4036106296358 382.1307384828009L1140.4036106296358 382.1307384828009Q1140.4036106296358 353.6145469457871 1137.0928324596603 345.25301959679825L1137.0928324596603 345.25301959679825Q1140.5727744777366 343.85137628396194 1143.376061103409 343.85137628396194L1143.376061103409 343.85137628396194Q1151.3750944921817 343.85137628396194 1151.3750944921817 352.55123132915264L1151.3750944921817 352.55123132915264Q1156.5950075192961 348.56379776677363 1164.7632047561697 345.5913472930001Q1172.9555682570576 342.64306308324103 1181.9937509984502 342.64306308324103Q1191.0319337398425 342.64306308324103 1197.5568250237357 348.4671327107159Q1204.0817163076285 354.2912023381908 1204.0817163076285 367.17182105787583L1204.0817163076285 367.17182105787583L1203.5742247633257 398.1529715243604Q1203.5742247633257 414.1510383019055 1206.5225089730848 424.4217005080334L1206.5225089730848 424.4217005080334Q1203.0425669550086 425.8233438208696 1199.1276321846726 425.8233438208696Q1195.212697414337 425.8233438208696 1193.2068975011402 423.81754390767287Q1191.2252638519578 421.81174399447616 1191.2252638519578 416.9301586635636ZM1270.9014363074957 363.6918790397996L1270.9014363074957 363.6918790397996Q1268.9923014503565 358.6411298607861 1263.0715667668242 355.52368180292615Q1257.1508320832918 352.38206748105176 1250.9884347596148 352.38206748105176Q1244.8018711719237 352.38206748105176 1240.4519436493288 355.5961805949694Q1236.1020161267334 358.8344599729014 1236.1020161267334 364.39270069621773Q1236.1020161267334 369.95094141953393 1240.717772553487 372.92339189330744Q1245.3335289802412 375.87167610306653 1251.9309190561771 377.4424832640037Q1258.552475396128 379.0132904249409 1265.1740317360786 381.01909033813763Q1271.771421812015 383.00072398732004 1276.3871782387687 388.2206370144344Q1281.0029346655228 393.4405500415488 1281.0029346655228 401.80207739053765L1281.0029346655228 401.80207739053765Q1281.0029346655228 414.1510383019055 1272.133915772231 420.60343079375525Q1263.2407306149253 427.0316570215906 1251.858420264134 427.0316570215906Q1240.4519436493288 427.0316570215906 1232.1870813563974 423.02005719519707Q1223.922219063466 419.03262363281806 1223.922219063466 413.11188894928546L1223.922219063466 413.11188894928546Q1223.922219063466 408.061139770272 1231.752088604138 405.81367721693107L1231.752088604138 405.81367721693107Q1233.6612234612767 411.3719179402474 1240.016950897069 414.32020215000637Q1246.3726783328611 417.2926526237799 1253.864220177331 417.2926526237799Q1261.331595757786 417.2926526237799 1265.9473521845403 413.9818744538046Q1270.563108611294 410.67109628382923 1270.563108611294 404.58119775219575Q1270.563108611294 398.49129922056227 1265.9473521845403 395.71217885890417Q1261.331595757786 392.93305849724607 1254.7342056818497 391.4589163923665Q1248.1126493418992 389.96060802347256 1241.4910930019487 387.97897437429026Q1234.8937029260123 385.97317446109355 1230.2779464992582 380.3907674737628Q1225.6621900725042 374.8325267504465 1225.6621900725042 365.1660211446791Q1225.6621900725042 355.52368180292615 1234.6278740218536 349.0712893110764Q1243.5935579712027 342.64306308324103 1253.3325623690134 342.64306308324103Q1263.0715667668242 342.64306308324103 1270.9014363074957 346.2921689494183Q1278.7313058481677 349.9412748155954 1278.7313058481677 355.862009499128Q1278.7313058481677 361.7827441826605 1270.9014363074957 363.6918790397996Z " fill="#e9ecef" transform="matrix(0.6863860053007255,0,0,0.6863860053007254,-4.262483501142084,45.34931188864405)"/></g></svg>